<svg xmlns="http://www.w3.org/2000/svg" xmlns:xlink="http://www.w3.org/1999/xlink" viewBox="0 0 280 250" preserveAspectRatio="xMidYMid" style="display: block; shape-rendering: auto; background: transparent;" width="280" height="250"><style type="text/css">
  .ld-text text {
    text-anchor: middle;
    dominant-baseline: middle;
    font-size: 30px;
    opacity: 0;
    user-select: none;
    pointer-events: none;
  }
</style>
<g style="transform-origin:140px 125px;transform:scale(1)" class="ld-text">
<g transform="translate(140,125)">
  <g transform="scale(0.3750) translate(0,0)"><g class="path" style="opacity: 1; transform-origin: -293.36px -2.91px; transform: matrix3d(0.91, 0, 0, 0, 0, 0.91, 0, 0, 0, 0, 0.91, 0, 0, 0, 0, 1); animation: 0.833333s linear -0.521053s infinite normal forwards running animate-zrwaoqxrlii; transform-box: view-box;"><path d="M15.20 14.34L15.20 14.34Q15.20 39.14 16.32 46.82L16.32 46.82Q16.32 48.74 12.64 49.98Q8.96 51.22 6.56 51.22Q4.16 51.22 4.16 50.50L4.16 50.50Q4.16 50.02 4.40 49.30L4.40 49.30Q5.92 45.94 5.92 22.26L5.92 22.26Q5.92-0.14 4-2.62L4-2.62L3.68-3.10Q3.20-3.50 3.20-4.10Q3.20-4.70 4.08-5.10L4.08-5.10Q5.28-5.82 8.36-6.54Q11.44-7.26 13.92-7.26Q16.40-7.26 16.40-6.14L16.40-6.14L16.40-5.90Q15.44 2.42 15.20 14.34" style="fill: rgb(112, 222, 255);" transform="translate(-303.160,-24.890)"></path></g><g class="path" style="opacity: 1; transform-origin: -275.8px -24.66px; transform: matrix3d(0.91, 0, 0, 0, 0, 0.91, 0, 0, 0, 0, 0.91, 0, 0, 0, 0, 1); animation: 0.833333s linear -0.492105s infinite normal forwards running animate-zrwaoqxrlii; transform-box: view-box;"><path d="M28.92-7.06Q29.52-6.94 30.32-6.22Q31.12-5.50 31.12-3.62Q31.12-1.74 30.40 0.94Q29.68 3.62 28.88 4.98L28.88 4.98L28.16 6.42Q27.44 7.62 27.12 7.62L27.12 7.62L26.96 7.62Q26.24 7.62 26.24 7.06L26.24 7.06Q26.24 1.94 24.24-2.78L24.24-2.78Q23.60-4.30 23.60-4.46L23.60-4.46Q23.60-5.66 25-6.38Q26.40-7.10 27.36-7.14Q28.32-7.18 28.92-7.06" style="fill: rgb(112, 222, 255);" transform="translate(-303.160,-24.890)"></path></g><g class="path" style="opacity: 1; transform-origin: -246.68px 7.45px; transform: matrix3d(0.91, 0, 0, 0, 0, 0.91, 0, 0, 0, 0, 0.91, 0, 0, 0, 0, 1); animation: 0.833333s linear -0.463158s infinite normal forwards running animate-zrwaoqxrlii; transform-box: view-box;"><path d="M51.20 50.26L51.20 50.26Q52.32 44.66 52.32 34.54Q52.32 24.42 52.24 22.58Q52.16 20.74 51.12 19.62Q50.08 18.50 49.32 18.34Q48.56 18.18 47.20 18.18Q45.84 18.18 44.56 19.42Q43.28 20.66 43.04 21.94L43.04 21.94L42.72 23.22Q42.48 25.62 42.48 33.86Q42.48 42.10 42.84 44.22Q43.20 46.34 43.20 47.06Q43.20 47.78 42.56 48.50L42.56 48.50Q39.84 51.38 34.88 51.38L34.88 51.38Q33.12 51.38 33.12 50.34L33.12 50.34Q34.72 40.74 34.72 25.86L34.72 25.86Q34.72 20.34 34.48 18.42L34.48 18.42L34.16 15.86Q34.08 14.98 33.84 13.94L33.84 13.94Q33.84 12.98 36.32 12.98L36.32 12.98Q40 12.98 41.20 15.70L41.20 15.70Q41.28 16.02 41.52 16.02Q41.76 16.02 42.64 15.38L42.64 15.38Q45.28 13.30 49.76 13.30L49.76 13.30Q52.32 13.30 54.80 14.26Q57.28 15.22 58.24 16.82L58.24 16.82Q58.32 16.98 58.48 16.98Q58.64 16.98 58.96 16.66L58.96 16.66Q62.32 13.30 67.68 13.30L67.68 13.30Q74.80 13.30 77.44 18.42L77.44 18.42Q78.40 20.42 78.40 23.46Q78.40 26.50 77.92 32.10Q77.44 37.70 77.44 40.66Q77.44 43.62 78.04 46.02Q78.64 48.42 79.24 49.46Q79.84 50.50 79.84 50.66L79.84 50.66Q79.84 51.70 77.60 51.70L77.60 51.70Q72.08 51.70 69.92 49.46Q67.76 47.22 67.76 43.58Q67.76 39.94 69.24 33.74Q70.72 27.54 70.72 24.42L70.72 24.42Q70.72 18.10 65.60 18.10L65.60 18.10Q63.44 18.10 62.16 19.38Q60.88 20.66 60.64 21.94L60.64 21.94L60.48 23.22Q60.16 26.90 60.16 32.10Q60.16 37.30 60.32 40.22Q60.48 43.14 60.64 44.78Q60.80 46.42 60.80 46.74L60.80 46.74Q60.80 48.98 58 50.18Q55.20 51.38 52.56 51.38L52.56 51.38Q51.20 51.38 51.20 50.26" style="fill: rgb(112, 222, 255);" transform="translate(-303.160,-24.890)"></path></g><g class="path" style="opacity: 1; transform-origin: -186.84px -3.03px; transform: matrix3d(0.91, 0, 0, 0, 0, 0.91, 0, 0, 0, 0, 0.91, 0, 0, 0, 0, 1); animation: 0.833333s linear -0.434211s infinite normal forwards running animate-zrwaoqxrlii; transform-box: view-box;"><path d="M118.96 0.82Q121.04-1.82 123.16-4.10Q125.28-6.38 126.64-6.94Q128-7.50 132.16-7.50Q136.32-7.50 136.32-6.46L136.32-6.46Q136.32-6.06 135.44-5.58Q134.56-5.10 133.04-4.06Q131.52-3.02 126.68 1.62Q121.84 6.26 116.96 12.50L116.96 12.50Q116.80 12.66 116.80 12.94Q116.80 13.22 117.24 13.30Q117.68 13.38 118.48 13.54Q119.28 13.70 121.40 14.78Q123.52 15.86 125.20 17.50Q126.88 19.14 128.44 22.54Q130 25.94 130.24 28.94Q130.48 31.94 130.72 34.34Q130.96 36.74 131.96 41.22Q132.96 45.70 134.32 46.58L134.32 46.58Q134.72 46.90 134.72 47.38L134.72 47.38Q134.72 48.66 131.20 49.74Q127.68 50.82 124.92 50.82Q122.16 50.82 121.76 48.58L121.76 48.58Q121.36 46.18 121.20 37.14L121.20 37.14L121.20 33.94Q121.20 25.54 118.80 21.78L118.80 21.78Q116.72 18.50 115.04 18.10L115.04 18.10Q113.76 17.70 113.68 17.70L113.68 17.70L112.80 18.10Q110.88 20.34 109.76 22.42Q108.64 24.50 108.56 25.46L108.56 25.46L108.40 26.50Q108.40 37.78 109.36 45.78L109.36 45.78Q109.52 46.74 109.52 46.90L109.52 46.90Q109.52 48.66 105.80 49.94Q102.08 51.22 99.72 51.22Q97.36 51.22 97.36 50.50L97.36 50.50Q97.36 50.02 97.60 49.30L97.60 49.30Q98.40 47.54 98.76 37.66Q99.12 27.78 99.12 19.66Q99.12 11.54 98.80 6.50L98.80 6.50Q98.32-1.10 97.20-2.62L97.20-2.62Q96.32-3.74 96.32-4.06L96.32-4.06Q96.32-5.18 100.44-6.22Q104.56-7.26 107.08-7.26Q109.60-7.26 109.60-6.14L109.60-6.14L109.52-5.10Q108.48 3.54 108.48 13.38L108.48 13.38Q108.48 14.18 108.84 14.18Q109.20 14.18 109.68 13.46Q110.16 12.74 111.08 11.46Q112 10.18 114.44 6.82Q116.88 3.46 118.96 0.82" style="fill: rgb(112, 222, 255);" transform="translate(-303.160,-24.890)"></path></g><g class="path" style="opacity: 1; transform-origin: -152.84px 7.33px; transform: matrix3d(0.91, 0, 0, 0, 0, 0.91, 0, 0, 0, 0, 0.91, 0, 0, 0, 0, 1); animation: 0.833333s linear -0.405263s infinite normal forwards running animate-zrwaoqxrlii; transform-box: view-box;"><path d="M163.20 25.78L163.20 25.78L163.04 36.02Q163.04 46.66 165.36 48.82L165.36 48.82Q165.68 49.14 165.68 49.54L165.68 49.54Q165.68 50.74 160.52 50.74Q155.36 50.74 155.04 47.70L155.04 47.70Q154.96 46.98 154.96 44.74L154.96 44.74L155.28 31.94Q155.28 31.38 154.64 31.38L154.64 31.38Q150.80 31.38 147.44 33.54Q144.08 35.70 144.08 39.06L144.08 39.06Q144.08 40.82 145.04 42.02Q146 43.22 147.40 43.22Q148.80 43.22 149.72 42.66Q150.64 42.10 150.80 42.02L150.80 42.02Q152.16 42.18 152.16 44.86Q152.16 47.54 149.68 49.18Q147.20 50.82 144.48 50.82Q141.76 50.82 139.80 49.86Q137.84 48.90 136.96 47.70Q136.08 46.50 135.52 44.98L135.52 44.98Q134.96 43.14 134.96 41.78L134.96 41.78Q134.96 36.18 138.48 32.82Q142 29.46 147.52 28.02L147.52 28.02Q154.80 26.58 155.12 25.38L155.12 25.38Q155.36 24.50 155.36 22.42L155.36 22.42Q155.36 18.18 151.04 18.18L151.04 18.18Q149.20 18.18 147.76 19.34Q146.32 20.50 146.32 22.26L146.32 22.26L146.80 24.18Q146.64 25.54 143.92 25.78L143.92 25.78L143.04 25.86Q140.64 25.86 139.24 24.66Q137.84 23.46 137.84 21.46L137.84 21.46Q137.84 20.18 138.68 18.62Q139.52 17.06 140.80 16.10Q142.08 15.14 144.76 14.38Q147.44 13.62 149.92 13.62Q152.40 13.62 153.76 13.78Q155.12 13.94 157.48 14.54Q159.84 15.14 161.40 16.82Q162.96 18.50 163.08 20.38Q163.20 22.26 163.20 25.78" style="fill: rgb(112, 222, 255);" transform="translate(-303.160,-24.890)"></path></g><g class="path" style="opacity: 1; transform-origin: -122.68px 7.33px; transform: matrix3d(0.91, 0, 0, 0, 0, 0.91, 0, 0, 0, 0, 0.91, 0, 0, 0, 0, 1); animation: 0.833333s linear -0.376316s infinite normal forwards running animate-zrwaoqxrlii; transform-box: view-box;"><path d="M192.88 22.26L192.48 28.34L192.80 31.14Q192.80 32.66 189.92 32.66L189.92 32.66Q184.08 32.66 184.08 28.26L184.08 28.26Q184.08 27.22 184.64 25.38Q185.20 23.54 185.20 22.18Q185.20 20.82 184.40 19.82Q183.60 18.82 182.08 18.82Q180.56 18.82 179.48 19.90Q178.40 20.98 178.16 22.10L178.16 22.10L177.84 23.22Q177.36 25.70 177.36 31.50Q177.36 37.30 177.52 40.62Q177.68 43.94 177.84 45.18Q178 46.42 178 46.66L178 46.66Q178 48.66 175.52 49.90Q173.04 51.14 170.56 51.14Q168.08 51.14 168.08 50.10L168.08 50.10L168.48 47.62Q169.60 40.66 169.60 29.46Q169.60 18.26 168.80 14.26L168.80 14.26Q168.80 13.30 170.48 13.30L170.48 13.30Q174.80 13.30 176.24 16.26L176.24 16.26Q176.32 16.58 176.52 16.58Q176.72 16.58 177.60 15.86L177.60 15.86Q180.24 13.70 183.84 13.70L183.84 13.70Q186.08 13.70 188.32 14.58L188.32 14.58Q192.88 16.42 192.88 22.26L192.88 22.26" style="fill: rgb(112, 222, 255);" transform="translate(-303.160,-24.890)"></path></g><g class="path" style="opacity: 1; transform-origin: -94.16px 7.49px; transform: matrix3d(0.91, 0, 0, 0, 0, 0.91, 0, 0, 0, 0, 0.91, 0, 0, 0, 0, 1); animation: 0.833333s linear -0.347368s infinite normal forwards running animate-zrwaoqxrlii; transform-box: view-box;"><path d="M204.08 29.46L204.08 29.46L204.16 31.46Q204.16 31.94 204.80 31.94L204.80 31.94Q207.36 31.70 209.28 30.62Q211.20 29.54 212.16 28.18L212.16 28.18Q214.08 25.22 214.24 23.06L214.24 23.06L214.32 22.10Q214.32 17.78 210.88 17.78L210.88 17.78Q208.32 17.78 206.72 20.02L206.72 20.02Q204.08 23.54 204.08 29.46 zM221.52 40.10L221.52 40.10Q221.52 43.14 220.28 45.42Q219.04 47.70 217.48 48.78Q215.92 49.86 213.84 50.50L213.84 50.50Q211.20 51.30 208.80 51.30L208.80 51.30Q202.08 51.30 198.88 46.26Q195.68 41.22 195.68 33.42Q195.68 25.62 199.64 19.54Q203.60 13.46 211.52 13.46L211.52 13.46Q218.72 13.46 221.28 18.50L221.28 18.50Q222.32 20.42 222.32 22.14Q222.32 23.86 222.16 24.86Q222 25.86 221.04 27.86Q220.08 29.86 218.48 31.46Q216.88 33.06 213.44 34.50Q210 35.94 205.36 36.42L205.36 36.42Q204.72 36.42 204.72 36.98L204.72 36.98Q204.72 37.70 205.24 39.10Q205.76 40.50 206.40 41.46L206.40 41.46Q208.16 43.70 211.60 43.70L211.60 43.70Q215.04 43.70 217.44 41.46L217.44 41.46Q218.72 40.26 219.52 38.50L219.52 38.50Q219.84 37.86 220.36 37.86Q220.88 37.86 221.20 38.74Q221.52 39.62 221.52 40.10" style="fill: rgb(112, 222, 255);" transform="translate(-303.160,-24.890)"></path></g><g class="path" style="opacity: 1; transform-origin: -64.72px 7.49px; transform: matrix3d(0.91, 0, 0, 0, 0, 0.91, 0, 0, 0, 0, 0.91, 0, 0, 0, 0, 1); animation: 0.833333s linear -0.318421s infinite normal forwards running animate-zrwaoqxrlii; transform-box: view-box;"><path d="M233.52 29.46L233.52 29.46L233.60 31.46Q233.60 31.94 234.24 31.94L234.24 31.94Q236.80 31.70 238.72 30.62Q240.64 29.54 241.60 28.18L241.60 28.18Q243.52 25.22 243.68 23.06L243.68 23.06L243.76 22.10Q243.76 17.78 240.32 17.78L240.32 17.78Q237.76 17.78 236.16 20.02L236.16 20.02Q233.52 23.54 233.52 29.46 zM250.96 40.10L250.96 40.10Q250.96 43.14 249.72 45.42Q248.48 47.70 246.92 48.78Q245.36 49.86 243.28 50.50L243.28 50.50Q240.64 51.30 238.24 51.30L238.24 51.30Q231.52 51.30 228.32 46.26Q225.12 41.22 225.12 33.42Q225.12 25.62 229.08 19.54Q233.04 13.46 240.96 13.46L240.96 13.46Q248.16 13.46 250.72 18.50L250.72 18.50Q251.76 20.42 251.76 22.14Q251.76 23.86 251.60 24.86Q251.44 25.86 250.48 27.86Q249.52 29.86 247.92 31.46Q246.32 33.06 242.88 34.50Q239.44 35.94 234.80 36.42L234.80 36.42Q234.16 36.42 234.16 36.98L234.16 36.98Q234.16 37.70 234.68 39.10Q235.20 40.50 235.84 41.46L235.84 41.46Q237.60 43.70 241.04 43.70L241.04 43.70Q244.48 43.70 246.88 41.46L246.88 41.46Q248.16 40.26 248.96 38.50L248.96 38.50Q249.28 37.86 249.80 37.86Q250.32 37.86 250.64 38.74Q250.96 39.62 250.96 40.10" style="fill: rgb(112, 222, 255);" transform="translate(-303.160,-24.890)"></path></g><g class="path" style="opacity: 1; transform-origin: -24.44px 7.45px; transform: matrix3d(0.91, 0, 0, 0, 0, 0.91, 0, 0, 0, 0, 0.91, 0, 0, 0, 0, 1); animation: 0.833333s linear -0.289474s infinite normal forwards running animate-zrwaoqxrlii; transform-box: view-box;"><path d="M273.44 50.26L273.44 50.26Q274.56 44.66 274.56 34.54Q274.56 24.42 274.48 22.58Q274.40 20.74 273.36 19.62Q272.32 18.50 271.56 18.34Q270.80 18.18 269.44 18.18Q268.08 18.18 266.80 19.42Q265.52 20.66 265.28 21.94L265.28 21.94L264.96 23.22Q264.72 25.62 264.72 33.86Q264.72 42.10 265.08 44.22Q265.44 46.34 265.44 47.06Q265.44 47.78 264.80 48.50L264.80 48.50Q262.08 51.38 257.12 51.38L257.12 51.38Q255.36 51.38 255.36 50.34L255.36 50.34Q256.96 40.74 256.96 25.86L256.96 25.86Q256.96 20.34 256.72 18.42L256.72 18.42L256.40 15.86Q256.32 14.98 256.08 13.94L256.08 13.94Q256.08 12.98 258.56 12.98L258.56 12.98Q262.24 12.98 263.44 15.70L263.44 15.70Q263.52 16.02 263.76 16.02Q264 16.02 264.88 15.38L264.88 15.38Q267.52 13.30 272 13.30L272 13.30Q274.56 13.30 277.04 14.26Q279.52 15.22 280.48 16.82L280.48 16.82Q280.56 16.98 280.72 16.98Q280.88 16.98 281.20 16.66L281.20 16.66Q284.56 13.30 289.92 13.30L289.92 13.30Q297.04 13.30 299.68 18.42L299.68 18.42Q300.64 20.42 300.64 23.46Q300.64 26.50 300.16 32.10Q299.68 37.70 299.68 40.66Q299.68 43.62 300.28 46.02Q300.88 48.42 301.48 49.46Q302.08 50.50 302.08 50.66L302.08 50.66Q302.08 51.70 299.84 51.70L299.84 51.70Q294.32 51.70 292.16 49.46Q290 47.22 290 43.58Q290 39.94 291.48 33.74Q292.96 27.54 292.96 24.42L292.96 24.42Q292.96 18.10 287.84 18.10L287.84 18.10Q285.68 18.10 284.40 19.38Q283.12 20.66 282.88 21.94L282.88 21.94L282.72 23.22Q282.40 26.90 282.40 32.10Q282.40 37.30 282.56 40.22Q282.72 43.14 282.88 44.78Q283.04 46.42 283.04 46.74L283.04 46.74Q283.04 48.98 280.24 50.18Q277.44 51.38 274.80 51.38L274.80 51.38Q273.44 51.38 273.44 50.26" style="fill: rgb(112, 222, 255);" transform="translate(-303.160,-24.890)"></path></g><g class="path" style="opacity: 1; transform-origin: 36.84px -3.39px; transform: matrix3d(0.91, 0, 0, 0, 0, 0.91, 0, 0, 0, 0, 0.91, 0, 0, 0, 0, 1); animation: 0.833333s linear -0.260526s infinite normal forwards running animate-zrwaoqxrlii; transform-box: view-box;"><path d="M339.92 3.94L339.92 3.94Q333.60 11.86 330.80 19.78L330.80 19.78L330.88 19.78Q342 19.78 343.64 19.82Q345.28 19.86 345.44 19.70Q345.60 19.54 345.68 19.30L345.68 19.30Q344.32 9.46 343.52 5.90Q342.72 2.34 341.92 2.34Q341.12 2.34 339.92 3.94 zM332.80 41.62L332.80 41.62L334.56 41.30Q335.36 41.30 335.36 42.18L335.36 42.18Q335.36 44.98 334.24 46.90Q333.12 48.82 331.44 49.62L331.44 49.62Q328.72 50.98 326.80 50.98L326.80 50.98Q323.12 50.98 321.28 48.22Q319.44 45.46 319.44 39.90Q319.44 34.34 322.48 25.46L322.48 25.46L317.84 25.46Q316.96 25.46 316.96 24.58Q316.96 23.70 318.32 21.74Q319.68 19.78 321.20 19.78L321.20 19.78L324.80 19.78Q330.48 7.14 338.16-2.06L338.16-2.06Q340.16-4.46 343.08-6.54Q346-8.62 347.60-8.62Q349.20-8.62 350-7.18L350-7.18Q352.08-3.82 354.88 17.38L354.88 17.38Q355.84 26.50 358.20 36.22Q360.56 45.94 362.56 47.54L362.56 47.54Q363.04 47.86 363.04 48.34L363.04 48.34Q363.04 49.54 359.64 50.58Q356.24 51.62 354.44 51.62Q352.64 51.62 351.68 51.18Q350.72 50.74 350.48 50.26L350.48 50.26Q349.04 47.14 347.60 35.38L347.60 35.38L347.12 31.62Q346.80 27.86 346.48 25.94L346.48 25.94L345.92 25.54L329.20 25.46Q328.24 29.54 328.24 32.58Q328.24 35.62 328.44 37.02Q328.64 38.42 329.76 40.02Q330.88 41.62 332.80 41.62" style="fill: rgb(112, 222, 255);" transform="translate(-303.160,-24.890)"></path></g><g class="path" style="opacity: 1; transform-origin: 75.76px -2.19px; transform: matrix3d(0.91, 0, 0, 0, 0, 0.91, 0, 0, 0, 0, 0.91, 0, 0, 0, 0, 1); animation: 0.833333s linear -0.231579s infinite normal forwards running animate-zrwaoqxrlii; transform-box: view-box;"><path d="M381.12 22.18L381.12 22.18L379.28 22.66Q377.84 22.66 377.84 19.98Q377.84 17.30 379.80 15.66Q381.76 14.02 384.80 14.02L384.80 14.02Q386.48 14.02 388.40 15.02Q390.32 16.02 391.60 17.50Q392.88 18.98 393.88 22.14Q394.88 25.30 394.88 29.54L394.88 29.54Q394.88 39.30 389.64 45.38Q384.40 51.46 374.48 51.46L374.48 51.46Q371.60 51.46 368.80 50.90L368.80 50.90L368 50.74Q366.96 50.42 366.80 49.62L366.80 49.62Q366.56 47.94 366.56 41.70L366.56 41.70L367.04 15.78Q367.04 9.78 366.72 6.58L366.72 6.58L366.56 5.46Q366.40 3.22 365.64 1.62Q364.88 0.02 364.16-0.46L364.16-0.46L363.52-0.86Q362.96-1.18 362.96-1.58L362.96-1.58Q362.96-2.78 366.96-4.42Q370.96-6.06 372.80-6.06Q374.64-6.06 374.72-5.10L374.72-5.10Q375.28-0.22 375.28 8.82L375.28 8.82L374.88 28.02Q374.88 40.58 375.60 45.38L375.60 45.38Q375.68 46.50 378.12 46.50Q380.56 46.50 382.32 45.14Q384.08 43.78 384.96 41.54L384.96 41.54Q386.56 37.46 386.56 32.50L386.56 32.50Q386.56 30.18 385.92 27.46L385.92 27.46Q384.80 22.18 381.12 22.18" style="fill: rgb(112, 222, 255);" transform="translate(-303.160,-24.890)"></path></g><g class="path" style="opacity: 1; transform-origin: 109.8px -2.43px; transform: matrix3d(0.91, 0, 0, 0, 0, 0.91, 0, 0, 0, 0, 0.91, 0, 0, 0, 0, 1); animation: 0.833333s linear -0.202632s infinite normal forwards running animate-zrwaoqxrlii; transform-box: view-box;"><path d="M414.48 13.86L414.48 13.86Q415.92 13.86 417.08 14.22Q418.24 14.58 418.32 14.58L418.32 14.58L418.80 14.18L418.48 5.46Q418.32 3.22 417.52 1.62Q416.72 0.02 416.08-0.46L416.08-0.46L415.36-0.86Q414.88-1.18 414.88-1.58L414.88-1.58Q414.88-2.78 418.60-4.38Q422.32-5.98 424.40-5.98Q426.48-5.98 426.64-5.10L426.64-5.10Q427.04-2.38 427.04 5.26Q427.04 12.90 426.68 20.26Q426.32 27.62 426.32 36.94Q426.32 46.26 427.52 48.66L427.52 48.66Q427.84 49.22 427.84 49.70L427.84 49.70Q427.84 50.90 424.40 50.90L424.40 50.90Q417.84 50.90 417.84 47.78L417.84 47.78Q417.68 46.50 417.68 43.82Q417.68 41.14 418.20 33.82Q418.72 26.50 418.72 22.54Q418.72 18.58 414.76 18.58Q410.80 18.58 408.72 23.22Q406.64 27.86 406.64 32.50L406.64 32.50Q406.64 42.34 411.60 42.34L411.60 42.34Q412.32 42.34 413 42.06Q413.68 41.78 413.84 41.78L413.84 41.78Q414.48 41.78 414.84 42.58Q415.20 43.38 415.20 44.18L415.20 44.18Q415.20 46.90 413.04 48.78Q410.88 50.66 407.76 50.66L407.76 50.66Q402.96 50.66 400.52 46.46Q398.08 42.26 398.08 36.02L398.08 36.02Q398.08 28.10 401.84 21.30L401.84 21.30Q403.76 17.94 407.04 15.90Q410.32 13.86 414.48 13.86" style="fill: rgb(112, 222, 255);" transform="translate(-303.160,-24.890)"></path></g><g class="path" style="opacity: 1; transform-origin: 140.8px 7.49px; transform: matrix3d(0.91, 0, 0, 0, 0, 0.91, 0, 0, 0, 0, 0.91, 0, 0, 0, 0, 1); animation: 0.833333s linear -0.173684s infinite normal forwards running animate-zrwaoqxrlii; transform-box: view-box;"><path d="M439.04 29.46L439.04 29.46L439.12 31.46Q439.12 31.94 439.76 31.94L439.76 31.94Q442.32 31.70 444.24 30.62Q446.16 29.54 447.12 28.18L447.12 28.18Q449.04 25.22 449.20 23.06L449.20 23.06L449.28 22.10Q449.28 17.78 445.84 17.78L445.84 17.78Q443.28 17.78 441.68 20.02L441.68 20.02Q439.04 23.54 439.04 29.46 zM456.48 40.10L456.48 40.10Q456.48 43.14 455.24 45.42Q454 47.70 452.44 48.78Q450.88 49.86 448.80 50.50L448.80 50.50Q446.16 51.30 443.76 51.30L443.76 51.30Q437.04 51.30 433.84 46.26Q430.64 41.22 430.64 33.42Q430.64 25.62 434.60 19.54Q438.56 13.46 446.48 13.46L446.48 13.46Q453.68 13.46 456.24 18.50L456.24 18.50Q457.28 20.42 457.28 22.14Q457.28 23.86 457.12 24.86Q456.96 25.86 456 27.86Q455.04 29.86 453.44 31.46Q451.84 33.06 448.40 34.50Q444.96 35.94 440.32 36.42L440.32 36.42Q439.68 36.42 439.68 36.98L439.68 36.98Q439.68 37.70 440.20 39.10Q440.72 40.50 441.36 41.46L441.36 41.46Q443.12 43.70 446.56 43.70L446.56 43.70Q450 43.70 452.40 41.46L452.40 41.46Q453.68 40.26 454.48 38.50L454.48 38.50Q454.80 37.86 455.32 37.86Q455.84 37.86 456.16 38.74Q456.48 39.62 456.48 40.10" style="fill: rgb(112, 222, 255);" transform="translate(-303.160,-24.890)"></path></g><g class="path" style="opacity: 1; transform-origin: 162.04px -1.99px; transform: matrix3d(0.91, 0, 0, 0, 0, 0.91, 0, 0, 0, 0, 0.91, 0, 0, 0, 0, 1); animation: 0.833333s linear -0.144737s infinite normal forwards running animate-zrwaoqxrlii; transform-box: view-box;"><path d="M470.88 4.02L470.88 4.02L470.40 33.38Q470.40 47.14 471.28 49.86L471.28 49.86Q471.52 50.34 471.52 50.82L471.52 50.82Q471.52 51.78 469.20 51.78Q466.88 51.78 464.04 50.62Q461.20 49.46 461.20 47.62L461.20 47.62Q462.80 36.42 462.80 17.70L462.80 17.70L462.48 5.46Q462.32 3.22 461.56 1.62Q460.80 0.02 460.08-0.46L460.08-0.46L459.44-0.86Q458.88-1.18 458.88-1.58L458.88-1.58Q458.88-2.70 462.36-4.34Q465.84-5.98 469.12-5.98L469.12-5.98Q470.40-5.98 470.56-5.10L470.56-5.10Q470.88-3.02 470.88 4.02" style="fill: rgb(112, 222, 255);" transform="translate(-303.160,-24.890)"></path></g><g class="path" style="opacity: 1; transform-origin: 206.44px -3.07px; transform: matrix3d(0.91, 0, 0, 0, 0, 0.91, 0, 0, 0, 0, 0.91, 0, 0, 0, 0, 1); animation: 0.833333s linear -0.115789s infinite normal forwards running animate-zrwaoqxrlii; transform-box: view-box;"><path d="M521.04 24.74L521.04 24.74L520.96 15.22Q520.96 1.06 520-3.58L520-3.58Q519.84-4.14 519.84-4.46L519.84-4.46Q519.84-5.82 522.56-6.78Q525.28-7.74 526.88-7.74Q528.48-7.74 528.48-6.78L528.48-6.78Q528.48-6.70 528.32-5.90L528.32-5.90Q526.48 3.94 526.48 25.38L526.48 25.38Q526.48 40.02 528.16 46.42L528.16 46.42Q528.48 47.46 528.48 47.54L528.48 47.54Q528.48 49.22 524.80 50.30Q521.12 51.38 519.60 51.38L519.60 51.38Q517.20 51.38 516.32 50.26L516.32 50.26Q514.56 48.02 510.60 37.66Q506.64 27.30 503.68 18.34L503.68 18.34L500.64 9.38Q500.48 8.98 500.24 8.98L500.24 8.98Q499.92 8.98 499.52 9.54L499.52 9.54Q499.12 16.98 499.12 24.42Q499.12 31.86 499.24 35.86Q499.36 39.86 499.52 41.94Q499.68 44.02 499.84 45.26Q500 46.50 500.12 47.06Q500.24 47.62 500.24 47.86L500.24 47.86Q500.24 49.38 497.60 50.22Q494.96 51.06 492.84 51.06Q490.72 51.06 490.72 50.10L490.72 50.10Q490.72 49.62 490.96 48.90Q491.20 48.18 491.52 47.06L491.52 47.06Q492.32 44.26 492.64 36.86Q492.96 29.46 492.96 19.98Q492.96 10.50 492.72 6.18L492.72 6.18Q492.32-0.86 491.28-3.26L491.28-3.26Q491.04-3.50 491.04-3.90L491.04-3.90Q491.04-5.18 495.28-6.38Q499.52-7.58 501.88-7.58Q504.24-7.58 504.64-7.50L504.64-7.50Q505.76-7.58 506-6.22L506-6.22Q508.32 2.18 512.52 13.54Q516.72 24.90 520 30.90L520 30.90Q520.40 31.30 520.64 31.30L520.64 31.30Q521.04 31.30 521.04 24.74" style="fill: rgb(112, 222, 255);" transform="translate(-303.160,-24.890)"></path></g><g class="path" style="opacity: 1; transform-origin: 243.96px 7.33px; transform: matrix3d(0.91, 0, 0, 0, 0, 0.91, 0, 0, 0, 0, 0.91, 0, 0, 0, 0, 1); animation: 0.833333s linear -0.0868421s infinite normal forwards running animate-zrwaoqxrlii; transform-box: view-box;"><path d="M560 25.78L560 25.78L559.84 36.02Q559.84 46.66 562.16 48.82L562.16 48.82Q562.48 49.14 562.48 49.54L562.48 49.54Q562.48 50.74 557.32 50.74Q552.16 50.74 551.84 47.70L551.84 47.70Q551.76 46.98 551.76 44.74L551.76 44.74L552.08 31.94Q552.08 31.38 551.44 31.38L551.44 31.38Q547.60 31.38 544.24 33.54Q540.88 35.70 540.88 39.06L540.88 39.06Q540.88 40.82 541.84 42.02Q542.80 43.22 544.20 43.22Q545.60 43.22 546.52 42.66Q547.44 42.10 547.60 42.02L547.60 42.02Q548.96 42.18 548.96 44.86Q548.96 47.54 546.48 49.18Q544 50.82 541.28 50.82Q538.56 50.82 536.60 49.86Q534.64 48.90 533.76 47.70Q532.88 46.50 532.32 44.98L532.32 44.98Q531.76 43.14 531.76 41.78L531.76 41.78Q531.76 36.18 535.28 32.82Q538.80 29.46 544.32 28.02L544.32 28.02Q551.60 26.58 551.92 25.38L551.92 25.38Q552.16 24.50 552.16 22.42L552.16 22.42Q552.16 18.18 547.84 18.18L547.84 18.18Q546 18.18 544.56 19.34Q543.12 20.50 543.12 22.26L543.12 22.26L543.60 24.18Q543.44 25.54 540.72 25.78L540.72 25.78L539.84 25.86Q537.44 25.86 536.04 24.66Q534.64 23.46 534.64 21.46L534.64 21.46Q534.64 20.18 535.48 18.62Q536.32 17.06 537.60 16.10Q538.88 15.14 541.56 14.38Q544.24 13.62 546.72 13.62Q549.20 13.62 550.56 13.78Q551.92 13.94 554.28 14.54Q556.64 15.14 558.20 16.82Q559.76 18.50 559.88 20.38Q560 22.26 560 25.78" style="fill: rgb(112, 222, 255);" transform="translate(-303.160,-24.890)"></path></g><g class="path" style="opacity: 1; transform-origin: 275.68px -2.19px; transform: matrix3d(0.91, 0, 0, 0, 0, 0.91, 0, 0, 0, 0, 0.91, 0, 0, 0, 0, 1); animation: 0.833333s linear -0.0578947s infinite normal forwards running animate-zrwaoqxrlii; transform-box: view-box;"><path d="M581.04 22.18L581.04 22.18L579.20 22.66Q577.76 22.66 577.76 19.98Q577.76 17.30 579.72 15.66Q581.68 14.02 584.72 14.02L584.72 14.02Q586.40 14.02 588.32 15.02Q590.24 16.02 591.52 17.50Q592.80 18.98 593.80 22.14Q594.80 25.30 594.80 29.54L594.80 29.54Q594.80 39.30 589.56 45.38Q584.32 51.46 574.40 51.46L574.40 51.46Q571.52 51.46 568.72 50.90L568.72 50.90L567.92 50.74Q566.88 50.42 566.72 49.62L566.72 49.62Q566.48 47.94 566.48 41.70L566.48 41.70L566.96 15.78Q566.96 9.78 566.64 6.58L566.64 6.58L566.48 5.46Q566.32 3.22 565.56 1.62Q564.80 0.02 564.08-0.46L564.08-0.46L563.44-0.86Q562.88-1.18 562.88-1.58L562.88-1.58Q562.88-2.78 566.88-4.42Q570.88-6.06 572.72-6.06Q574.56-6.06 574.64-5.10L574.64-5.10Q575.20-0.22 575.20 8.82L575.20 8.82L574.80 28.02Q574.80 40.58 575.52 45.38L575.52 45.38Q575.60 46.50 578.04 46.50Q580.48 46.50 582.24 45.14Q584 43.78 584.88 41.54L584.88 41.54Q586.48 37.46 586.48 32.50L586.48 32.50Q586.48 30.18 585.84 27.46L585.84 27.46Q584.72 22.18 581.04 22.18" style="fill: rgb(112, 222, 255);" transform="translate(-303.160,-24.890)"></path></g><g class="path" style="opacity: 1; transform-origin: 301.24px -21.23px; transform: matrix3d(0.91, 0, 0, 0, 0, 0.91, 0, 0, 0, 0, 0.91, 0, 0, 0, 0, 1); animation: 0.833333s linear -0.0289474s infinite normal forwards running animate-zrwaoqxrlii; transform-box: view-box;"><path d="M605.84 6.98L605.84 6.98L603.92 6.90Q601.76 6.90 601.12 7.94L601.12 7.94Q600.96 8.18 600.72 8.18L600.72 8.18Q599.68 8.18 599.68 4.62Q599.68 1.06 600.76 0.10Q601.84-0.86 604.52-0.86Q607.20-0.86 608.16 0.06Q609.12 0.98 609.12 3.14Q609.12 5.30 608.40 6.14Q607.68 6.98 605.84 6.98" style="fill: rgb(112, 222, 255);" transform="translate(-303.160,-24.890)"></path></g><g class="path" style="opacity: 1; transform-origin: 300.2px 7.73px; transform: matrix3d(0.91, 0, 0, 0, 0, 0.91, 0, 0, 0, 0, 0.91, 0, 0, 0, 0, 1); animation: 0.833333s linear 0s infinite normal forwards running animate-zrwaoqxrlii; transform-box: view-box;"><path d="M599.44 47.38L599.44 47.38L600.32 28.74Q600.32 22.10 598.80 19.70L598.80 19.70Q598.32 18.90 597.68 18.50L597.68 18.50Q597.20 18.34 597.20 17.86L597.20 17.86Q597.20 16.42 601.28 15.06Q605.36 13.70 607.24 13.70Q609.12 13.70 609.20 14.66L609.20 14.66Q609.20 16.26 608.76 23.74Q608.32 31.22 608.32 39.46Q608.32 47.70 609.28 49.70L609.28 49.70Q609.52 50.10 609.52 50.50L609.52 50.50Q609.52 51.54 606.48 51.54Q603.44 51.54 600.24 49.94L600.24 49.94Q599.44 49.54 599.44 47.38" style="fill: rgb(112, 222, 255);" transform="translate(-303.160,-24.890)"></path></g></g><text dy="0.35em" fill="#70deff" font-family="Aladin" font-size="30">I'm Kareem Abdel Nabi</text>
</g>
</g><style type="text/css">@keyframes animate-zrwaoqxrlii { 0.00% {transform: translate(0.00px,0.00px) rotate(0.00deg) scale(0.91, 0.91) skew(0deg, 0.00deg) ;opacity: 1.00;}4.00% {transform: translate(0.00px,0.00px) rotate(0.00deg) scale(0.91, 0.91) ;}8.00% {animation-timing-function: cubic-bezier(0.69,0.60,0.35,0.27);transform: translate(0.00px,0.00px) rotate(0.00deg) scale(0.91, 0.91) ;}14.00% {transform: translate(0.00px,0.00px) rotate(0.00deg) scale(0.93, 0.93) ;}18.00% {transform: translate(0.00px,0.00px) rotate(0.00deg) scale(0.94, 0.94) ;}22.00% {animation-timing-function: cubic-bezier(0.67,0.66,0.34,0.33);transform: translate(0.00px,0.00px) rotate(0.00deg) scale(0.96, 0.96) ;}26.00% {transform: translate(0.00px,0.00px) rotate(0.00deg) scale(0.97, 0.97) ;}30.00% {transform: translate(0.00px,0.00px) rotate(0.00deg) scale(0.99, 0.99) ;}34.00% {animation-timing-function: cubic-bezier(0.65,0.71,0.32,0.38);transform: translate(0.00px,0.00px) rotate(0.00deg) scale(1.01, 1.01) ;}40.00% {animation-timing-function: cubic-bezier(0.64,0.74,0.31,0.41);transform: translate(0.00px,0.00px) rotate(0.00deg) scale(1.02, 1.02) ;}46.00% {animation-timing-function: cubic-bezier(0.60,0.91,0.23,0.63);transform: translate(0.00px,0.00px) rotate(0.00deg) scale(1.03, 1.03) ;}50.00% {transform: translate(0.00px,0.00px) rotate(0.00deg) scale(1.03, 1.03) ;}54.00% {transform: translate(0.00px,0.00px) rotate(0.00deg) scale(1.03, 1.03) ;}58.00% {animation-timing-function: cubic-bezier(0.69,0.60,0.35,0.27);transform: translate(0.00px,0.00px) rotate(0.00deg) scale(1.03, 1.03) ;}64.00% {transform: translate(0.00px,0.00px) rotate(0.00deg) scale(1.01, 1.01) ;}68.00% {transform: translate(0.00px,0.00px) rotate(0.00deg) scale(1.00, 1.00) ;}72.00% {animation-timing-function: cubic-bezier(0.67,0.66,0.34,0.33);transform: translate(0.00px,0.00px) rotate(0.00deg) scale(0.98, 0.98) ;}76.00% {animation-timing-function: cubic-bezier(0.66,0.68,0.33,0.35);transform: translate(0.00px,0.00px) rotate(0.00deg) scale(0.97, 0.97) ;}82.00% {animation-timing-function: cubic-bezier(0.65,0.71,0.32,0.38);transform: translate(0.00px,0.00px) rotate(0.00deg) scale(0.94, 0.94) ;}88.00% {animation-timing-function: cubic-bezier(0.65,0.73,0.31,0.40);transform: translate(0.00px,0.00px) rotate(0.00deg) scale(0.92, 0.92) ;}94.00% {animation-timing-function: cubic-bezier(0.63,0.80,0.28,0.48);transform: translate(0.00px,0.00px) rotate(0.00deg) scale(0.91, 0.91) ;}100.00% {animation-timing-function: cubic-bezier(0.63,0.80,0.28,0.48);transform: translate(0.00px,0.00px) rotate(0.00deg) scale(0.91, 0.91) ;} }</style><!-- [ldio] generated by https://loading.io --></svg>